<svg xmlns="http://www.w3.org/2000/svg"  viewBox="0 0 48 48" width="144px" height="144px"><defs><linearGradient id="52x_Ivfe9urrJo3bIH68aa" x1="33.5" x2="33.5" y1="-1.45" y2="60.31" data-name="Безымянный градиент 3" gradientUnits="userSpaceOnUse"><stop offset="0" stop-color="#fed100"/><stop offset=".03" stop-color="#fcca00"/><stop offset=".22" stop-color="#f3a400"/><stop offset=".41" stop-color="#ec8601"/><stop offset=".59" stop-color="#e77101"/><stop offset=".77" stop-color="#e46401"/><stop offset=".94" stop-color="#e36001"/></linearGradient><linearGradient id="52x_Ivfe9urrJo3bIH68ab" x1="6" x2="27" y1="24" y2="24" data-name="Безымянный градиент 16" gradientUnits="userSpaceOnUse"><stop offset="0" stop-color="#f44f5a"/><stop offset=".44" stop-color="#ee3d4a"/><stop offset="1" stop-color="#e52030"/></linearGradient></defs><path fill="url(#52x_Ivfe9urrJo3bIH68aa)" d="m41,10h-16v28h16c.55,0,1-.45,1-1V11c0-.55-.45-1-1-1Z"/><path fill="#fbe9e7" d="m24,29h14v2h-14v-2Zm0,4h14v2h-14v-2Zm6-18c-3.31,0-6,2.69-6,6s2.69,6,6,6,6-2.69,6-6h-6v-6Z"/><path fill="#fbe9e7" d="m32,13v6h6c0-3.31-2.69-6-6-6Z"/><path fill="url(#52x_Ivfe9urrJo3bIH68ab)" d="m27,42l-21-4V10l21-4v36Z"/><path fill="#fff" d="m16.83,17h-4.83v14h3v-4.82h1.55c1.66,0,2.98-.44,3.97-1.3.99-.87,1.48-2.01,1.48-3.41,0-2.97-1.72-4.46-5.17-4.46Zm-.53,6.78h-1.29v-4.36h1.29c1.64,0,2.46.72,2.46,2.16,0,1.47-.82,2.21-2.46,2.21Z"/></svg>