<?xml version="1.0" encoding="utf-8"?>
<!-- Generator: Adobe Illustrator 25.2.3, SVG Export Plug-In . SVG Version: 6.00 Build 0)  -->
<svg version="1.1" id="Layer_1" xmlns="http://www.w3.org/2000/svg" xmlns:xlink="http://www.w3.org/1999/xlink" x="0px" y="0px"
	 viewBox="0 0 406 378.9" style="enable-background:new 0 0 406 378.9;" xml:space="preserve">
<style type="text/css">
	.st0{fill:url(#SVGID_1_);}
	.st1{fill:url(#SVGID_2_);}
	.st2{fill:#FFFFFF;}
	.st3{fill:url(#SVGID_3_);}
	.st4{fill:url(#SVGID_4_);}
</style>
<linearGradient id="SVGID_1_" gradientUnits="userSpaceOnUse" x1="13.1436" y1="-23.2905" x2="67.0887" y2="-23.2905" gradientTransform="matrix(4.9606 0 0 4.9606 0 356.4847)">
	<stop  offset="0" style="stop-color:#175ECA"/>
	<stop  offset="1" style="stop-color:#3B9FF4"/>
</linearGradient>
<path class="st0" d="M65.2,367.9L199,114l133.8,253.9H199H65.2z"/>
<linearGradient id="SVGID_2_" gradientUnits="userSpaceOnUse" x1="40.1161" y1="-23.2905" x2="67.0887" y2="-23.2905" gradientTransform="matrix(4.9606 0 0 4.9606 0 356.4847)">
	<stop  offset="0" style="stop-color:#175ECA"/>
	<stop  offset="0.86" style="stop-color:#175ECA"/>
	<stop  offset="1" style="stop-color:#175ECA"/>
</linearGradient>
<path class="st1" d="M199,114l133.8,253.9H199V114z"/>
<path class="st2" d="M108.8,285.2L199,114l90.2,171.2L199,237.9L108.8,285.2z"/>
<linearGradient id="SVGID_3_" gradientUnits="userSpaceOnUse" x1="0" y1="-31.8882" x2="40.1161" y2="-31.8882" gradientTransform="matrix(4.9606 0 0 4.9606 0 356.4847)">
	<stop  offset="0" style="stop-color:#05A9F4"/>
	<stop  offset="1" style="stop-color:#4CC8F2"/>
</linearGradient>
<path class="st3" d="M154,28.7L6,304.9c-3.9,6.5-6,14-6,21.6c0,22.5,18.6,41.4,40.7,41.4h24.4L199,113.8L154,28.7z"/>
<linearGradient id="SVGID_4_" gradientUnits="userSpaceOnUse" x1="32.3759" y1="-34.7851" x2="79.6205" y2="-34.7851" gradientTransform="matrix(4.9606 0 0 4.9606 0 356.4847)">
	<stop  offset="0" style="stop-color:#05A9F4"/>
	<stop  offset="1" style="stop-color:#175ECA"/>
</linearGradient>
<path class="st4" d="M398,326.6c0-7.6-2.1-15.1-6-21.6L264.4,66.7c0,0-1.1-1.9-1.4-2.6C199-55.3,154,28.6,154,28.6l178.8,339.3h25.6
	C380.5,367.9,398,349,398,326.6z"/>
</svg>
