            <svg xmlns="http://www.w3.org/2000/svg" xmlns:xlink="http://www.w3.org/1999/xlink" width="124px" height="55px" viewBox="0 0 124 55" version="1.1" class="w30">
              <!-- Generator: Sketch 56.3 (81716) - https://sketch.com -->
              <title>bob-logo</title>
              <desc>Created with Sketch.</desc>
              <g id="Page-1" stroke="none" stroke-width="1" fill="none" fill-rule="evenodd">
                  <g id="bob-logo" fill-rule="nonzero">
                      <path d="M0.513626374,54.4984355 L0.513626374,6 L17.193956,6 C24.1617162,6.00694394 29.808479,11.6850446 29.8153846,18.6914737 C29.890458,21.5558664 28.9087346,24.34687 27.0593407,26.5268054 L26.7023077,26.9551033 L27.1407692,27.2952222 C30.9619878,30.1043299 33.1972993,34.5974173 33.1414286,39.3568461 C33.1173474,47.69535 26.4009447,54.4490267 18.1084615,54.4732416 L0.513626374,54.4984355 Z M7.64802198,47.3181477 L18.0834066,47.3181477 C22.4595046,47.3181477 26.007033,43.7509316 26.007033,39.3505476 C26.007033,34.9501635 22.4595046,31.3829474 18.0834066,31.3829474 L7.65428571,31.3829474 L7.64802198,47.3181477 Z M7.64802198,24.2026596 L17.193956,24.2026596 C19.1973648,24.2707533 21.078264,23.2348739 22.1000287,21.5007075 C23.1217934,19.7665411 23.1217934,17.6101079 22.1000287,15.8759414 C21.078264,14.141775 19.1973648,13.1058956 17.193956,13.1739894 L7.65428571,13.1739894 L7.64802198,24.2026596 Z M81.2782418,54.4984355 L81.2782418,6 L97.9648352,6 C104.932595,6.00694394 110.579358,11.6850446 110.586264,18.6914737 C110.661337,21.5558664 109.679614,24.34687 107.83022,26.5268054 L107.473187,26.9551033 L107.911648,27.2952222 C111.732867,30.1043299 113.968178,34.5974173 113.912308,39.3568461 C113.888226,47.69535 107.171824,54.4490267 98.8793407,54.4732416 L81.2782418,54.4984355 Z M88.4189011,47.3181477 L98.8542857,47.3181477 C103.230384,47.3181477 106.777912,43.7509316 106.777912,39.3505476 C106.777912,34.9501635 103.230384,31.3829474 98.8542857,31.3829474 L88.4126374,31.3829474 L88.4189011,47.3181477 Z M88.4189011,24.2026596 L97.9710989,24.2026596 C99.9745077,24.2707533 101.855407,23.2348739 102.877172,21.5007075 C103.898936,19.7665411 103.898936,17.6101079 102.877172,15.8759414 C101.855407,14.141775 99.9745077,13.1058956 97.9710989,13.1739894 L88.4126374,13.1739894 L88.4189011,24.2026596 Z M56.2671429,39.5646965 C49.5170111,39.5340281 43.4501437,35.416982 40.8962929,29.1338608 C38.3424422,22.8507395 39.8047176,15.6393203 44.6010741,10.8632054 C49.3974306,6.08709061 56.5829841,4.68717657 62.8061969,7.31642135 C69.0294096,9.94566614 73.0643062,16.0861076 73.0291322,22.8736765 C73.0207006,27.326314 71.2468724,31.5918038 68.1005059,34.724892 C64.9541393,37.8579802 60.695075,39.5999228 56.2671429,39.5646965 Z M56.2671429,13.1802879 C51.0885843,13.3136659 46.9595317,17.5733423 46.9595317,22.7823482 C46.9595317,27.9913542 51.0885843,32.2510306 56.2671429,32.3844086 C61.4457015,32.2510306 65.574754,27.9913542 65.574754,22.7823482 C65.574754,17.5733423 61.4457015,13.3136659 56.2671429,13.1802879 Z" id="Combined-Shape" fill="#000000"></path>
                      <rect id="Rectangle" fill="#2EE6D7" x="47.6357143" y="50.5114862" width="17.4006593" height="4.16960576"></rect>
                      <path d="M114.871094,6 L114.871094,1.2421875 L113.171875,1.2421875 L113.171875,0.2734375 L117.722656,0.2734375 L117.722656,1.2421875 L116.027344,1.2421875 L116.027344,6 L114.871094,6 Z M118.453125,6 L118.453125,0.2734375 L120.183594,0.2734375 L121.222656,4.1796875 L122.25,0.2734375 L123.984375,0.2734375 L123.984375,6 L122.910156,6 L122.910156,1.4921875 L121.773438,6 L120.660156,6 L119.527344,1.4921875 L119.527344,6 L118.453125,6 Z" id="TM" fill="#000000"></path>
                  </g>
              </g>
          </svg>
