<?xml version="1.0" encoding="utf-8"?>
<!-- Generator: Adobe Illustrator 16.0.0, SVG Export Plug-In . SVG Version: 6.00 Build 0)  -->
<!DOCTYPE svg PUBLIC "-//W3C//DTD SVG 1.1//EN" "http://www.w3.org/Graphics/SVG/1.1/DTD/svg11.dtd">
<svg version="1.1" id="Layer_1" xmlns="http://www.w3.org/2000/svg" xmlns:xlink="http://www.w3.org/1999/xlink" x="0px" y="0px"
	 width="204px" height="58px" viewBox="0 0 204 58" enable-background="new 0 0 204 58" xml:space="preserve">
<g>
	<g>
		<path fill="#FFFFFF" d="M15.466,33.51c0.727,1.109,2.986,4.562,9.338,4.562c1.07,0,2.176-0.086,3.246-0.512
			c2.172-0.895,2.557-2.43,2.557-3.453c0-1.918-1.322-2.602-2.26-2.986c-0.684-0.256-0.77-0.297-3.498-0.938l-3.625-0.768
			c-1.92-0.469-2.857-0.684-3.795-1.066c-1.363-0.554-5.074-2.39-5.074-7.379c0-5.715,4.818-9.382,11.895-9.382
			c6.484,0,9.98,3.199,12.115,6.098l-4.604,3.455c-1.027-1.492-2.988-4.479-7.809-4.479c-3.025,0-5.672,1.365-5.672,3.669
			c0,2.559,2.812,3.069,5.545,3.583l3.113,0.682c4.053,0.852,9.768,2.515,9.768,8.957c0,6.906-6.396,9.68-12.795,9.68
			c-1.666,0-3.541-0.168-5.377-0.68c-2.004-0.598-5.543-2.051-7.801-5.715L15.466,33.51z"/>
		<path fill="#FFFFFF" d="M61.827,12.356l-8.57,30.111h-7.594l-8.871-30.111h5.93l6.738,23.751l6.525-23.751H61.827z"/>
		<path fill="#FFFFFF" d="M69.425,12.356v30.111H63.88V12.356H69.425z"/>
	</g>
	<g>
		<path d="M72.749,12.356h10.793c2.602,0.042,5.758,0.085,8.914,2.345c5.031,3.54,5.799,9.596,5.799,12.966
			c0,5.16-1.75,10.406-6.186,12.968c-2.984,1.746-6.145,1.785-9.68,1.832h-9.641V12.356z M78.378,17.474v19.915h2.391
			c4.266,0,5.758-0.215,7.035-0.684c2.178-0.852,4.48-2.727,4.48-8.997c0-2.814-0.426-7.421-4.607-9.426
			c-1.619-0.725-2.514-0.767-6.312-0.809H78.378z"/>
		<path d="M120.991,37.689c-2.645,3.539-6.055,5.418-10.408,5.418c-5.584,0-10.961-3.539-10.961-11.391
			c0-7.164,4.607-11.214,10.621-11.214c5.631,0,7.975,3.368,8.404,4.01c1.746,2.472,2.131,6.181,2.172,8.314h-15.781
			c0.6,3.371,2.688,5.289,6.059,5.289c3.494,0,4.904-2.047,5.547-2.941L120.991,37.689z M115.188,29.076
			c-0.467-3.328-2.514-4.479-4.773-4.479c-2.729,0-4.607,1.578-5.205,4.479H115.188z"/>
		<path d="M125.13,36.154c1.279,1.574,3.201,2.727,6.143,2.727c2.943,0,4.223-1.449,4.223-2.516c0-1.367-1.535-1.703-2.219-1.832
			c-0.725-0.168-4.223-0.812-4.99-1.023c-5.076-1.195-6.014-4.137-6.014-6.056c0-3.627,3.285-6.951,9.129-6.951
			c3.238,0,5.586,1.021,7.037,2.046c1.066,0.683,1.746,1.407,2.174,1.921l-3.625,3.367c-0.598-1.152-2.047-3.24-5.801-3.24
			c-2.432,0-3.539,1.066-3.539,2.176c0,1.533,1.578,1.96,4.309,2.431c4.434,0.811,5.674,1.026,7.035,2.088
			c1.324,1.023,2.176,2.73,2.176,4.52c0,3.328-2.988,7.297-9.598,7.297c-3.793,0-7.547-1.195-10.236-3.797L125.13,36.154z"/>
		<path d="M148.718,12.655v5.158h-5.074v-5.158H148.718z M148.718,21.141v21.326h-5.074V21.141H148.718z"/>
		<path d="M171.962,21.141v17.486c-0.041,4.223-0.041,5.926-1.361,7.723c-1.197,1.574-3.84,3.238-8.875,3.238
			c-7.59,0-9.082-3.285-9.809-6.695h5.629c0.387,1.234,1.281,2.645,4.354,2.645c2.6,0,3.752-1.023,4.221-1.707
			c0.766-1.062,0.766-2.305,0.766-4.902c-1.105,1.023-3.324,2.301-6.395,2.301c-5.035,0-9.254-3.414-9.254-10.191
			c0-7.935,5.672-10.535,9.594-10.535c3.84,0,5.461,2.089,6.055,2.857v-2.219H171.962z M161.726,25.065
			c-2.6,0-5.244,1.748-5.244,5.843c0,3.711,2.26,5.629,5.289,5.629c2.729,0,5.201-1.492,5.246-5.416
			C167.062,27.667,165.183,25.065,161.726,25.065z"/>
		<path d="M174.78,21.141h5.16v2.518c0.258-0.386,0.77-1.067,1.664-1.665c1.281-0.937,3.238-1.491,4.904-1.491
			c2.43,0,4.525,1.109,5.588,2.559c1.32,1.79,1.32,4.093,1.32,6.867v12.539h-5.072V31.592c0-1.578,0-2.645-0.172-3.243
			c-0.471-1.877-1.832-2.856-3.498-2.856c-1.662,0-3.195,0.979-3.924,2.388c-0.811,1.578-0.811,3.754-0.811,5.333v9.254h-5.16
			V21.141z"/>
	</g>
</g>
</svg>
