<svg display="block" role="presentation" viewBox="0 0 1689 366"
	xmlns="http://www.w3.org/2000/svg">
	<g d="M 486.098 227.505 C 498.345 242.614 516.726 253.64 544.902 253.64 C 573.079 253.64 585.326 239.752 585.326 229.546 C 585.326 216.478 570.628 213.216 564.094 211.986 C 557.15 210.355 523.67 204.231 516.315 202.19 C 467.717 190.753 458.741 162.576 458.741 144.206 C 458.741 109.495 490.18 77.646 546.133 77.646 C 577.171 77.646 599.625 87.442 613.513 97.248 C 623.719 103.782 630.253 110.726 634.345 115.629 L 599.635 147.888 C 593.921 136.861 580.033 116.849 544.102 116.849 C 520.828 116.849 510.212 127.055 510.212 137.672 C 510.212 152.37 525.321 156.453 551.456 160.945 C 593.921 168.7 605.768 170.741 618.836 180.957 C 631.494 190.753 639.658 207.093 639.658 224.243 C 639.658 256.092 611.071 294.074 547.774 294.074 C 511.433 294.074 475.491 282.637 449.766 257.733 L 486.108 227.515 Z M 701.295 2.502 L 701.295 51.911 L 652.696 51.911 L 652.696 2.502 Z M 701.295 83.76 L 701.295 287.941 L 652.696 287.941 L 652.696 83.76 Z M 914.461 83.76 L 914.461 251.189 C 914.051 291.623 914.051 307.952 901.393 325.103 C 889.957 340.212 864.642 356.141 816.453 356.141 C 743.76 356.141 729.472 324.702 722.527 292.033 L 776.429 292.033 C 780.102 303.87 788.677 317.348 818.084 317.348 C 842.999 317.348 854.015 307.542 858.508 301.008 C 865.862 290.802 865.862 278.955 865.862 254.051 C 855.246 263.846 834.013 276.104 804.606 276.104 C 756.418 276.104 715.994 243.434 715.994 178.506 C 715.994 102.551 770.306 77.646 807.878 77.646 C 845.45 77.646 860.149 97.658 865.862 105.002 L 865.862 83.77 L 914.461 83.77 Z M 816.453 121.332 C 791.538 121.332 766.223 138.072 766.223 177.275 C 766.223 212.806 787.866 231.177 816.863 231.177 C 842.999 231.177 866.683 216.889 867.093 179.316 C 867.503 146.237 849.533 121.332 816.453 121.332 Z M 941.407 83.76 L 990.816 83.76 L 990.816 107.854 C 993.268 104.182 998.171 97.648 1006.746 91.925 C 1018.993 82.939 1037.784 77.636 1053.703 77.636 C 1076.977 77.636 1096.989 88.252 1107.195 102.141 C 1119.853 119.291 1119.853 141.344 1119.853 167.89 L 1119.853 287.951 L 1071.254 287.951 L 1071.254 183.819 C 1071.254 168.71 1071.254 158.504 1069.623 152.781 C 1065.13 134.81 1052.062 125.424 1036.133 125.424 C 1020.204 125.424 1005.505 134.82 998.561 148.298 C 990.806 163.407 990.806 184.229 990.806 199.338 L 990.806 287.951 L 941.397 287.951 L 941.397 83.76 Z M 0 0 L 103.311 0 C 128.216 0.41 158.434 0.82 188.662 22.463 C 236.85 56.363 244.194 114.348 244.194 146.607 C 244.194 196.016 227.455 246.246 184.979 270.75 C 156.393 287.49 126.175 287.9 92.285 288.311 L 0 288.311 Z M 53.902 48.999 L 53.902 239.702 L 76.765 239.702 C 117.6 239.702 131.898 237.661 144.145 233.168 C 164.968 225.003 187.021 207.033 187.021 147.007 C 187.021 120.051 182.938 75.955 142.915 56.764 C 127.395 49.819 118.82 49.409 82.479 48.999 L 53.892 48.999 Z M 454.089 242.564 C 428.774 276.454 396.104 294.424 354.45 294.424 C 300.958 294.424 249.498 260.534 249.498 185.39 C 249.498 116.789 293.604 77.996 351.178 77.996 C 405.08 77.996 427.543 110.255 431.625 116.379 C 448.365 140.063 452.047 175.594 452.448 196.006 L 301.358 196.006 C 307.072 228.265 327.084 246.646 359.343 246.646 C 391.602 246.646 406.3 227.044 412.434 218.469 Z M 398.556 160.075 C 394.063 128.226 374.462 117.199 352.819 117.199 C 326.683 117.199 308.713 132.308 302.999 160.075 Z" fill="transparent" height="356.1409299150312px" id="MWqYUm3MM" transform="translate(568.837 9.505)" width="1119.852537165315px">
		<path d="M 36.331 225.003 C 48.579 240.112 66.96 251.139 95.136 251.139 C 123.313 251.139 135.56 237.25 135.56 227.044 C 135.56 213.977 120.862 210.715 114.328 209.484 C 107.384 207.853 73.904 201.729 66.549 199.688 C 17.951 188.251 8.975 160.075 8.975 141.704 C 8.975 106.993 40.414 75.144 96.367 75.144 C 127.405 75.144 149.859 84.94 163.747 94.746 C 173.953 101.28 180.487 108.224 184.579 113.127 L 149.869 145.386 C 144.155 134.36 130.267 114.348 94.336 114.348 C 71.062 114.348 60.446 124.554 60.446 135.17 C 60.446 149.869 75.555 153.951 101.69 158.444 C 144.155 166.198 156.002 168.24 169.07 178.456 C 181.728 188.251 189.892 204.591 189.892 221.741 C 189.892 253.59 161.305 291.573 98.008 291.573 C 61.666 291.573 25.725 280.136 0 255.231 L 36.342 225.013 Z M 251.529 0 L 251.529 49.409 L 202.93 49.409 L 202.93 0 Z M 251.529 81.258 L 251.529 285.439 L 202.93 285.439 L 202.93 81.258 Z M 464.695 81.258 L 464.695 248.687 C 464.285 289.121 464.285 305.451 451.627 322.601 C 440.19 337.71 414.875 353.639 366.687 353.639 C 293.994 353.639 279.706 322.201 272.761 289.531 L 326.663 289.531 C 330.335 301.368 338.911 314.846 368.318 314.846 C 393.233 314.846 404.249 305.04 408.742 298.507 C 416.096 288.301 416.096 276.454 416.096 251.549 C 405.48 261.345 384.247 273.602 354.84 273.602 C 306.651 273.602 266.228 240.933 266.228 176.004 C 266.228 100.049 320.54 75.144 358.112 75.144 C 395.684 75.144 410.383 95.156 416.096 102.501 L 416.096 81.268 L 464.695 81.268 Z M 366.687 118.83 C 341.772 118.83 316.457 135.57 316.457 174.773 C 316.457 210.304 338.1 228.675 367.097 228.675 C 393.233 228.675 416.917 214.387 417.327 176.815 C 417.737 143.735 399.767 118.83 366.687 118.83 Z M 491.641 81.258 L 541.05 81.258 L 541.05 105.352 C 543.502 101.68 548.404 95.146 556.98 89.423 C 569.227 80.438 588.018 75.134 603.937 75.134 C 627.211 75.134 647.223 85.751 657.429 99.639 C 670.086 116.789 670.086 138.842 670.086 165.388 L 670.086 285.449 L 621.488 285.449 L 621.488 181.317 C 621.488 166.208 621.488 156.002 619.857 150.279 C 615.364 132.308 602.296 122.923 586.367 122.923 C 570.438 122.923 555.739 132.318 548.795 145.796 C 541.04 160.905 541.04 181.728 541.04 196.836 L 541.04 285.449 L 491.631 285.449 L 491.631 81.258 Z" fill="rgb(0, 0, 0)" height="353.63925240190866px" id="HMA1i8nWJ" transform="translate(449.766 2.502)" width="670.0864849192212px"/>
		<path d="M 0 0 L 103.311 0 C 128.216 0.41 158.434 0.82 188.662 22.463 C 236.85 56.363 244.194 114.348 244.194 146.607 C 244.194 196.016 227.455 246.246 184.979 270.75 C 156.393 287.49 126.175 287.9 92.285 288.311 L 0 288.311 Z M 53.902 48.999 L 53.902 239.702 L 76.765 239.702 C 117.6 239.702 131.898 237.661 144.145 233.168 C 164.968 225.003 187.021 207.033 187.021 147.007 C 187.021 120.051 182.938 75.955 142.915 56.764 C 127.395 49.819 118.82 49.409 82.479 48.999 L 53.892 48.999 Z M 454.089 242.564 C 428.774 276.454 396.104 294.424 354.45 294.424 C 300.958 294.424 249.498 260.534 249.498 185.39 C 249.498 116.789 293.604 77.996 351.178 77.996 C 405.08 77.996 427.543 110.255 431.625 116.379 C 448.365 140.063 452.047 175.594 452.448 196.006 L 301.358 196.006 C 307.072 228.265 327.084 246.646 359.343 246.646 C 391.602 246.646 406.3 227.044 412.434 218.469 Z M 398.556 160.075 C 394.063 128.226 374.462 117.199 352.819 117.199 C 326.683 117.199 308.713 132.308 302.999 160.075 Z" fill="rgb(0, 0, 0)" height="294.42421109892337px" id="OZSTp5X2n" transform="translate(0 0)" width="454.08869468639284px"/>
	</g>
	<path d="M 45.347 209.894 C 52.291 220.51 73.934 253.59 134.78 253.59 C 144.986 253.59 155.602 252.77 165.818 248.687 C 186.64 240.112 190.323 225.413 190.323 215.608 C 190.323 197.227 177.665 190.693 168.68 187.021 C 162.146 184.569 161.325 184.159 135.19 178.035 L 100.479 170.681 C 82.099 166.188 73.123 164.147 64.138 160.475 C 51.07 155.172 15.539 137.611 15.539 89.833 C 15.529 35.111 61.676 0 129.467 0 C 191.533 0 225.023 30.628 245.435 58.395 L 201.329 91.474 C 191.523 77.186 172.742 48.599 126.595 48.599 C 97.598 48.599 72.283 61.666 72.283 83.72 C 72.283 108.224 99.239 113.117 125.374 118.02 L 155.182 124.554 C 193.975 132.719 248.697 148.648 248.697 210.304 C 248.697 276.454 187.441 302.999 126.185 302.999 C 110.255 302.999 92.295 301.368 74.734 296.465 C 55.543 290.752 21.643 276.864 0 241.743 L 45.327 209.894 Z M 481.465 7.344 L 399.386 295.645 L 326.703 295.645 L 241.753 7.344 L 298.517 7.344 L 363.035 234.799 L 425.522 7.344 Z M 544.752 7.344 L 544.752 295.645 L 491.661 295.645 L 491.661 7.344 Z" fill="rgb(237, 30, 36)" height="302.99928952043354px" id="BPZYGMr8V" transform="translate(0 0)" width="544.7523342279374px"/>
</svg>